<svg xmlns="http://www.w3.org/2000/svg" xmlns:xlink="http://www.w3.org/1999/xlink" width="852" zoomAndPan="magnify" viewBox="0 0 639 635.999998" height="848" preserveAspectRatio="xMidYMid meet" version="1.0"><path fill="#724327" d="M 109.453125 453.78125 L 109.453125 437.824219 L 114.644531 437.824219 L 114.859375 453.511719 L 115.078125 469.203125 L 112.265625 469.46875 L 109.453125 469.738281 Z M 127.460938 466.886719 C 127.46875 463.589844 128.601562 448.710938 129.378906 441.71875 L 129.820312 437.742188 L 132.910156 437.96875 L 136 438.199219 L 140.914062 449.589844 L 145.828125 460.984375 L 147.015625 458.589844 C 147.667969 457.273438 149.859375 452.066406 151.890625 447.019531 L 155.578125 437.839844 L 158.765625 437.832031 C 161.730469 437.824219 161.957031 437.964844 162.003906 439.886719 C 162.03125 441.019531 162.453125 448.105469 162.941406 455.636719 L 163.828125 469.324219 L 158.417969 469.324219 L 157.941406 464.261719 C 157.679688 461.476562 157.433594 456.160156 157.394531 452.449219 L 157.328125 445.699219 L 155.605469 449.449219 C 154.660156 451.511719 152.28125 456.996094 150.316406 461.636719 C 147.8125 467.554688 146.378906 470.074219 145.507812 470.074219 C 144.289062 470.074219 143.296875 468.121094 136.222656 451.84375 L 133.675781 445.988281 L 133.195312 451.09375 C 132.929688 453.902344 132.707031 458.054688 132.699219 460.324219 C 132.691406 462.589844 132.476562 465.714844 132.21875 467.261719 C 131.808594 469.75 131.507812 470.074219 129.605469 470.074219 C 127.570312 470.074219 127.453125 469.898438 127.460938 466.886719 Z M 178.640625 469.480469 L 176.203125 469.226562 L 176.203125 437.824219 L 183.726562 437.824219 C 194.707031 437.824219 198.566406 439.917969 199.207031 446.230469 C 199.617188 450.25 197.742188 454.121094 194.472656 456.003906 C 193.179688 456.753906 189.886719 457.570312 187.160156 457.828125 L 182.203125 458.289062 L 182.203125 463.761719 C 182.203125 466.773438 181.949219 469.347656 181.640625 469.484375 C 181.332031 469.621094 179.980469 469.621094 178.640625 469.480469 Z M 191.148438 452.851562 C 191.890625 452.453125 192.921875 451.105469 193.441406 449.851562 C 195.421875 445.070312 191.894531 441.574219 185.089844 441.574219 L 182.203125 441.574219 L 182.203125 453.574219 L 186 453.574219 C 188.089844 453.574219 190.40625 453.25 191.148438 452.851562 Z M 217.625 469.171875 C 214.058594 467.972656 210.210938 463.324219 208.816406 458.519531 C 206.898438 451.925781 208.589844 445.90625 213.640625 441.34375 C 217.210938 438.117188 219.253906 437.445312 225.40625 437.460938 C 229.167969 437.472656 230.628906 437.871094 233.597656 439.710938 C 238.578125 442.792969 240.703125 446.9375 240.703125 453.574219 C 240.703125 459.824219 238.582031 464.234375 234.035156 467.4375 C 231.304688 469.355469 230.097656 469.695312 225.46875 469.835938 C 222.503906 469.921875 218.972656 469.625 217.625 469.171875 Z M 230.675781 464.453125 C 237.566406 459.9375 236.328125 445.117188 228.816406 442.210938 C 225.375 440.878906 219.910156 441.84375 217.433594 444.214844 C 212.660156 448.789062 212.542969 457.453125 217.183594 462.59375 C 218.621094 464.179688 220.53125 465.640625 221.433594 465.835938 C 224.214844 466.4375 228.664062 465.769531 230.675781 464.453125 Z M 255.140625 469.460938 L 252.703125 469.226562 L 252.703125 437.660156 L 261.140625 437.949219 C 272.488281 438.335938 275.203125 440.222656 275.203125 447.722656 C 275.203125 450.328125 274.75 451.234375 272.28125 453.582031 L 269.363281 456.359375 L 273.40625 462.839844 C 275.632812 466.40625 277.453125 469.410156 277.453125 469.515625 C 277.453125 469.621094 275.980469 469.589844 274.179688 469.449219 C 270.964844 469.191406 270.84375 469.082031 267.378906 463.253906 C 263.933594 457.464844 263.78125 457.324219 260.929688 457.324219 L 258.011719 457.324219 L 257.792969 463.511719 L 257.578125 469.699219 Z M 266.105469 452.742188 C 268.84375 451.789062 269.953125 450.113281 269.953125 446.925781 C 269.953125 443.550781 267.003906 441.574219 261.976562 441.574219 L 257.953125 441.574219 L 257.953125 453.574219 L 260.839844 453.574219 C 262.429688 453.574219 264.796875 453.199219 266.105469 452.742188 Z M 324.234375 468.996094 C 321.332031 467.730469 319.453125 465.140625 319.453125 462.40625 C 319.453125 460.683594 319.777344 460.324219 321.328125 460.324219 C 322.382812 460.324219 323.203125 460.757812 323.203125 461.316406 C 323.203125 463.109375 326.742188 465.6875 329.757812 466.089844 C 331.699219 466.351562 333.519531 466.070312 335.078125 465.261719 C 337.046875 464.242188 337.453125 463.59375 337.453125 461.445312 C 337.453125 458.375 336.285156 457.476562 329.203125 455.09375 C 322.9375 452.980469 320.203125 450.214844 320.203125 445.984375 C 320.203125 439.6875 327.148438 435.890625 335.160156 437.8125 C 339.386719 438.828125 341.207031 440.492188 341.421875 443.542969 C 341.632812 446.476562 338.867188 447.003906 337.621094 444.269531 C 336.371094 441.527344 331.285156 440.265625 327.929688 441.867188 C 326.125 442.726562 325.453125 443.546875 325.453125 444.882812 C 325.453125 447.492188 326.988281 448.714844 332.636719 450.59375 C 341.6875 453.605469 345.15625 458.652344 342.21875 464.542969 C 340.332031 468.320312 336.773438 470.082031 331.089844 470.042969 C 328.605469 470.027344 325.523438 469.554688 324.234375 468.996094 Z M 374.578125 469.199219 C 371.277344 467.371094 369.703125 465.308594 369.703125 462.816406 C 369.703125 460.6875 369.964844 460.324219 371.496094 460.324219 C 372.796875 460.324219 373.421875 460.851562 373.773438 462.246094 C 374.59375 465.515625 381.214844 467.421875 384.9375 465.460938 C 387.101562 464.324219 387.675781 463.367188 387.691406 460.902344 C 387.703125 458.449219 386.179688 457.367188 379.453125 455.066406 C 372.667969 452.746094 370.453125 450.519531 370.453125 446.035156 C 370.453125 443.25 370.855469 442.121094 372.417969 440.558594 C 376.003906 436.976562 382.21875 436.148438 387.515625 438.550781 C 390.796875 440.042969 392.742188 442.828125 391.949219 444.898438 C 391.292969 446.613281 388.640625 446.34375 388.054688 444.503906 C 387.039062 441.296875 379.691406 439.945312 376.710938 442.417969 C 375.414062 443.496094 375.40625 447.144531 376.699219 448.214844 C 377.246094 448.671875 379.949219 449.738281 382.710938 450.589844 C 385.542969 451.464844 388.867188 453.140625 390.339844 454.433594 C 392.695312 456.5 392.949219 457.109375 392.933594 460.589844 C 392.917969 464.941406 391.683594 466.980469 387.925781 468.867188 C 385.152344 470.261719 376.871094 470.46875 374.578125 469.199219 Z M 442.046875 468.664062 C 436.328125 466.066406 433.449219 460.867188 433.472656 453.199219 C 433.507812 442.429688 443.054688 435.289062 454.109375 437.765625 C 459.851562 439.050781 463.609375 442.683594 465.335938 448.613281 C 467.742188 456.890625 464.613281 464.71875 457.4375 468.386719 C 453.25 470.523438 446.414062 470.648438 442.046875 468.664062 Z M 455.640625 464.476562 C 462.515625 459.96875 462.023438 446.519531 454.84375 442.652344 C 453.078125 441.703125 451.375 441.460938 448.429688 441.746094 C 445.042969 442.070312 444.042969 442.542969 441.992188 444.777344 C 436.53125 450.734375 438.613281 462.0625 445.761719 465.296875 C 448.535156 466.550781 453.046875 466.175781 455.640625 464.476562 Z M 478.226562 469.597656 C 477.9375 469.308594 477.703125 462.042969 477.703125 453.449219 L 477.703125 437.824219 L 485.152344 437.824219 C 495.539062 437.824219 499.648438 439.746094 500.648438 445.0625 C 501.335938 448.734375 500.429688 451.304688 497.460938 454.105469 L 494.820312 456.59375 L 497.636719 460.898438 C 499.183594 463.261719 501.09375 466.125 501.878906 467.261719 L 503.304688 469.324219 L 496.636719 469.324219 L 492.984375 463.324219 C 489.472656 457.558594 489.222656 457.324219 486.546875 457.324219 L 483.761719 457.324219 L 483.542969 463.464844 L 483.328125 469.601562 L 481.039062 469.863281 C 479.78125 470.003906 478.515625 469.886719 478.226562 469.597656 Z M 493.953125 451.019531 C 496.207031 448.402344 496.171875 445.726562 493.859375 443.414062 C 492.347656 441.902344 491.277344 441.574219 487.859375 441.574219 L 483.703125 441.574219 L 483.703125 453.757812 L 487.953125 453.40625 C 491.402344 453.121094 492.535156 452.667969 493.953125 451.019531 Z M 295.453125 455.824219 L 295.453125 442.324219 L 285.703125 442.324219 L 285.703125 437.824219 L 311.300781 437.824219 L 311.0625 439.886719 C 310.835938 441.882812 310.667969 441.953125 305.765625 442.167969 L 300.703125 442.390625 L 300.703125 469.324219 L 295.453125 469.324219 Z M 411.039062 468.761719 C 411.089844 468.449219 411.089844 462.375 411.039062 455.261719 L 410.953125 442.324219 L 401.203125 442.324219 L 401.203125 437.824219 L 426.703125 437.824219 L 426.703125 442.324219 L 416.953125 442.324219 L 416.953125 469.324219 L 413.953125 469.324219 C 412.300781 469.324219 410.992188 469.070312 411.039062 468.761719 Z M 512.953125 453.574219 L 512.953125 437.824219 L 533.203125 437.824219 L 533.203125 441.574219 L 518.203125 441.574219 L 518.203125 451.324219 L 524.578125 451.324219 C 530.847656 451.324219 530.953125 451.351562 530.953125 453.167969 C 530.953125 454.960938 530.777344 455.019531 524.765625 455.230469 L 518.578125 455.449219 L 518.132812 465.574219 L 533.203125 465.574219 L 533.203125 469.324219 L 512.953125 469.324219 Z M 251.605469 402.488281 C 242.273438 401.128906 233.027344 397.4375 227 392.664062 C 223.078125 389.554688 218.613281 382.601562 216.539062 376.375 C 214.96875 371.664062 214.882812 369.882812 214.488281 335.449219 C 214.121094 303.222656 213.941406 299.199219 212.78125 297.078125 C 211.269531 294.316406 208.203125 291.726562 205.707031 291.101562 C 204.640625 290.832031 203.953125 290.101562 203.953125 289.242188 C 203.953125 287.882812 204.859375 287.824219 225.328125 287.824219 C 245.792969 287.824219 246.703125 287.882812 246.703125 289.242188 C 246.703125 290.125 246 290.835938 244.839844 291.128906 C 241.898438 291.867188 237.8125 295.925781 236.972656 298.945312 C 236.507812 300.625 236.207031 314.738281 236.207031 335.101562 C 236.203125 362.707031 236.402344 369.273438 237.351562 372.921875 C 239.765625 382.195312 245.222656 388.9375 253.320312 392.667969 C 256.652344 394.199219 259.074219 394.695312 264.46875 394.9375 C 279.613281 395.621094 289.910156 389.046875 295.988281 374.824219 L 298.070312 369.949219 L 298.3125 337.699219 C 298.445312 319.960938 298.335938 303.976562 298.070312 302.179688 C 297.46875 298.128906 292.859375 292.808594 288.828125 291.519531 C 285.476562 290.449219 284.855469 289.941406 285.546875 288.832031 C 285.90625 288.25 291.167969 287.886719 302.015625 287.703125 C 317.875 287.433594 317.953125 287.4375 317.953125 289.035156 C 317.953125 290.195312 317.363281 290.753906 315.808594 291.0625 C 312.921875 291.640625 309.4375 294.6875 307.730469 298.125 C 306.4375 300.726562 306.296875 303.734375 305.945312 336.574219 L 305.566406 372.199219 L 303.234375 377.964844 C 300.554688 384.578125 296.640625 390.257812 292.492188 393.542969 C 282.882812 401.148438 266.710938 404.6875 251.605469 402.488281 Z M 107.953125 399.359375 C 107.953125 397.953125 108.566406 397.46875 111.277344 396.746094 C 113.644531 396.109375 115.207031 395.058594 116.714844 393.085938 L 118.828125 390.316406 L 119.046875 346.382812 C 119.167969 322.21875 119.066406 301.34375 118.824219 299.996094 C 118.207031 296.601562 114.40625 292.519531 110.882812 291.464844 C 108.855469 290.855469 107.953125 290.160156 107.953125 289.203125 C 107.953125 287.894531 109.085938 287.824219 130.078125 287.824219 C 150.664062 287.824219 152.199219 287.914062 152.15625 289.136719 C 152.128906 289.949219 150.65625 291.164062 148.28125 292.324219 C 145.363281 293.753906 144.027344 294.996094 142.691406 297.515625 L 140.941406 300.832031 L 141.132812 347.015625 L 141.328125 393.199219 L 172.113281 393.199219 L 177.101562 390.742188 C 183.101562 387.785156 188.378906 382.3125 192.023438 375.269531 C 194.160156 371.136719 194.890625 370.328125 196.496094 370.324219 L 198.417969 370.324219 L 197.097656 382.066406 C 196.367188 388.527344 195.671875 395.363281 195.550781 397.253906 L 195.328125 400.699219 L 151.640625 400.890625 L 107.953125 401.085938 Z M 324.703125 399.269531 C 324.703125 397.921875 325.300781 397.261719 327.074219 396.644531 C 330.90625 395.308594 334.527344 392.089844 336.035156 388.683594 C 337.089844 386.300781 337.726562 381.605469 338.585938 369.855469 C 339.21875 361.242188 340.402344 345.359375 341.21875 334.558594 C 343.132812 309.214844 343.136719 301.226562 341.230469 297.027344 C 339.78125 293.839844 336.039062 290.832031 333.515625 290.824219 C 332.609375 290.824219 332.203125 290.230469 332.203125 288.925781 L 332.203125 287.027344 L 363.101562 287.183594 L 369.101562 299.691406 C 375.375 312.773438 388.882812 341.355469 397.457031 359.6875 C 400.21875 365.59375 402.78125 370.433594 403.152344 370.445312 C 403.523438 370.453125 405.214844 367.308594 406.914062 363.453125 C 408.613281 359.601562 415.664062 343.792969 422.582031 328.324219 C 429.5 312.855469 436.398438 297.328125 437.910156 293.824219 L 440.660156 287.449219 L 456.367188 287.449219 C 471.382812 287.449219 472.078125 287.511719 472.078125 288.894531 C 472.078125 289.816406 471.375 290.527344 470.136719 290.859375 C 466.734375 291.769531 464.320312 293.851562 462.636719 297.335938 C 461.054688 300.601562 461.015625 301.257812 461.535156 315.460938 C 461.835938 323.566406 462.839844 343.191406 463.773438 359.074219 C 465.621094 390.539062 465.71875 391.070312 470.390625 394.578125 C 471.730469 395.585938 473.925781 396.640625 475.265625 396.925781 C 476.988281 397.289062 477.703125 397.863281 477.703125 398.882812 C 477.703125 400.269531 476.898438 400.324219 455.578125 400.324219 C 434.121094 400.324219 433.453125 400.277344 433.453125 398.855469 C 433.453125 397.777344 434.136719 397.261719 436.054688 396.902344 C 437.484375 396.632812 439.511719 395.558594 440.554688 394.515625 C 444.144531 390.925781 444.308594 388.816406 442.894531 364.507812 C 440.320312 320.265625 439.585938 308.703125 439.324219 308.445312 C 439.183594 308.304688 436.554688 313.8125 433.492188 320.691406 C 395.164062 406.714844 398.007812 400.667969 395.761719 400.933594 C 393.421875 401.207031 393.492188 401.328125 379.957031 372.503906 C 371.1875 353.820312 367.566406 346.136719 356.722656 323.183594 L 350.578125 310.171875 L 350.105469 313.433594 C 349.84375 315.230469 349.070312 324.964844 348.386719 335.074219 C 347.703125 345.179688 346.820312 358.023438 346.425781 363.617188 C 344.699219 387.894531 346.34375 393.933594 355.425781 396.652344 C 358.0625 397.445312 359.734375 399.539062 358.621094 400.65625 C 358.390625 400.882812 350.664062 401.074219 341.453125 401.074219 L 324.703125 401.074219 Z M 490.453125 398.941406 C 490.453125 397.988281 491.347656 397.292969 493.339844 396.695312 C 497.257812 395.523438 499.933594 392.859375 500.933594 389.136719 C 501.515625 386.976562 501.703125 372.960938 501.546875 343.117188 C 501.339844 302.929688 501.238281 300.019531 499.921875 297.371094 C 498.382812 294.269531 495.59375 291.949219 492.46875 291.167969 C 491.167969 290.839844 490.453125 290.15625 490.453125 289.242188 C 490.453125 287.882812 491.359375 287.824219 511.828125 287.824219 C 532.226562 287.824219 533.203125 287.886719 533.203125 289.230469 C 533.203125 290.167969 532.507812 290.773438 531.121094 291.050781 C 528.199219 291.636719 524.957031 294.378906 523.734375 297.300781 C 522.898438 299.308594 522.703125 308.027344 522.707031 343.484375 C 522.707031 370.527344 523 388.234375 523.464844 389.917969 C 524.449219 393.460938 527.34375 396.292969 530.601562 396.902344 C 532.515625 397.261719 533.203125 397.777344 533.203125 398.855469 C 533.203125 400.277344 532.535156 400.324219 511.828125 400.324219 C 491.5625 400.324219 490.453125 400.25 490.453125 398.941406 Z M 308.953125 257.28125 C 294.140625 255.59375 278.226562 246.667969 269.632812 235.238281 C 261.429688 224.328125 257.242188 212.34375 256.625 198.011719 C 256.425781 193.371094 256.515625 189.574219 256.824219 189.574219 C 260.253906 189.574219 274.28125 192.332031 278.457031 193.828125 C 284.109375 195.855469 291.753906 199.96875 294.394531 202.410156 L 295.960938 203.859375 L 297.167969 198.375 C 298.550781 192.085938 301.660156 184.769531 305.515625 178.746094 C 308.703125 173.757812 319.214844 162.574219 320.710938 162.574219 C 322.347656 162.574219 331.597656 172.335938 335.394531 178.070312 C 339.402344 184.117188 342.148438 190.394531 343.902344 197.53125 C 344.605469 200.371094 345.277344 202.820312 345.402344 202.972656 C 345.523438 203.125 347.644531 201.898438 350.113281 200.25 C 358.417969 194.707031 367.640625 191.628906 380.867188 189.992188 L 384.910156 189.492188 L 384.496094 198.34375 C 383.847656 212.203125 380.605469 222.144531 373.230469 232.902344 C 364.152344 246.144531 350.082031 254.800781 334 257.035156 C 328.613281 257.785156 314.5625 257.921875 308.953125 257.28125 Z M 339.277344 249.488281 C 356.878906 244.777344 369.414062 232.363281 375.621094 213.496094 C 377.070312 209.09375 378.976562 197.097656 378.328125 196.449219 C 377.65625 195.777344 362.71875 200.527344 358.402344 202.785156 C 347.753906 208.359375 338.820312 217.855469 332.929688 229.863281 C 329.910156 236.011719 326.953125 245.765625 326.953125 249.570312 L 326.953125 251.574219 L 331.589844 250.941406 C 334.144531 250.589844 337.601562 249.9375 339.277344 249.488281 Z M 314.605469 249.386719 C 314.398438 248.457031 313.710938 245.371094 313.074219 242.527344 C 311.777344 236.695312 307.335938 226.738281 303.621094 221.316406 C 298.164062 213.355469 290.207031 206.453125 281.382812 202.019531 C 277.378906 200.011719 264.144531 196.117188 263.230469 196.679688 C 262.253906 197.285156 264.078125 209.550781 265.96875 215.074219 C 270.769531 229.109375 279.871094 239.527344 292.828125 245.820312 C 298.84375 248.742188 306.871094 250.898438 312.152344 251.011719 C 314.710938 251.066406 314.945312 250.910156 314.605469 249.386719 Z M 326.527344 228.84375 C 329.625 222.261719 333.515625 216.113281 337.066406 212.183594 L 339.753906 209.210938 L 338.964844 204.273438 C 337.300781 193.859375 331.828125 182.488281 324.640625 174.519531 L 320.96875 170.449219 L 316.871094 174.757812 C 309.519531 182.488281 304.582031 192.449219 302.648438 203.449219 L 301.722656 208.699219 L 305.421875 213.40625 C 307.457031 215.996094 310.609375 220.722656 312.429688 223.90625 C 315.648438 229.539062 320.160156 241.882812 320.242188 245.269531 C 320.265625 246.191406 321.121094 244.078125 322.144531 240.574219 C 323.171875 237.066406 325.144531 231.789062 326.527344 228.84375 Z M 326.527344 228.84375 " fill-opacity="1" fill-rule="nonzero"/></svg>