<?xml version="1.0" encoding="UTF-8" standalone="no"?>
<!-- Created with Inkscape (http://www.inkscape.org/) -->

<svg
   version="1.1"
   id="svg1"
   width="852"
   height="848"
   viewBox="0 0 852 848"
   sodipodi:docname="logo-lumi-importadora.svg"
   inkscape:version="1.4.2 (f4327f4, 2025-05-13)"
   xmlns:inkscape="http://www.inkscape.org/namespaces/inkscape"
   xmlns:sodipodi="http://sodipodi.sourceforge.net/DTD/sodipodi-0.dtd"
   xmlns="http://www.w3.org/2000/svg"
   xmlns:svg="http://www.w3.org/2000/svg">
  <defs
     id="defs1" />
  <sodipodi:namedview
     id="namedview1"
     pagecolor="#505050"
     bordercolor="#eeeeee"
     borderopacity="1"
     inkscape:showpageshadow="0"
     inkscape:pageopacity="0"
     inkscape:pagecheckerboard="0"
     inkscape:deskcolor="#505050"
     inkscape:zoom="0.67291884"
     inkscape:cx="324.70484"
     inkscape:cy="425.75714"
     inkscape:window-width="1920"
     inkscape:window-height="1009"
     inkscape:window-x="-8"
     inkscape:window-y="-8"
     inkscape:window-maximized="1"
     inkscape:current-layer="g1" />
  <g
     inkscape:groupmode="layer"
     inkscape:label="Image"
     id="g1">
    <path
       style="fill:#724327;fill-opacity:1"
       d="M 147.97212,598.96983 V 577.6934 h 3.46139 3.46139 l 0.28861,20.91978 0.28861,20.91978 -3.75,0.35665 -3.75,0.35664 z m 24.01032,17.47357 c 0.0107,-4.39393 1.52327,-24.23433 2.55808,-33.55365 l 0.58892,-5.30366 4.11991,0.30366 4.1199,0.30365 6.55144,15.19082 6.55143,15.19082 1.58266,-3.19082 c 0.87047,-1.75495 3.79547,-8.69794 6.5,-15.42886 l 4.91734,-12.23804 4.25,-0.012 c 3.95613,-0.0111 4.25473,0.17819 4.3184,2.73804 0.0376,1.5125 0.60012,10.96272 1.25,21.00049 l 1.1816,18.2505 -3.6054,-5e-4 -3.60539,-4.9e-4 -0.6375,-6.75 c -0.35062,-3.7125 -0.6782,-10.8 -0.72795,-15.75 l -0.0905,-9 -2.29351,5 c -1.26143,2.75 -4.43464,10.0625 -7.05157,16.25 -3.33891,7.89457 -5.2524,11.25 -6.41551,11.25 -1.62251,0 -2.94794,-2.60214 -12.38053,-24.30599 l -3.39251,-7.806 -0.64273,6.806 c -0.3535,3.74329 -0.65087,9.28099 -0.66084,12.30599 -0.01,3.025 -0.29704,7.1875 -0.63795,9.25 -0.54843,3.31797 -0.95038,3.75 -3.48899,3.75 -2.71043,0 -2.86859,-0.23512 -2.85884,-4.25 z m 68.23968,3.46064 -3.25,-0.33736 V 598.63004 577.6934 h 10.03212 c 14.63924,0 19.78503,2.79454 20.6407,11.20942 0.54493,5.35902 -1.95403,10.51929 -6.31189,13.03383 -1.72649,0.99621 -6.11399,2.08909 -9.75,2.42862 l -6.61093,0.61734 v 7.29638 c 0,4.01301 -0.3375,7.44623 -0.75,7.62939 -0.4125,0.18316 -2.2125,0.18121 -4,-0.004 z m 16.67859,-22.17242 c 0.98841,-0.52898 2.36342,-2.32898 3.05558,-4 2.64044,-6.37459 -2.06341,-11.03822 -11.13339,-11.03822 h -3.85078 v 8 8 h 5.06574 c 2.78616,0 5.87444,-0.4328 6.86285,-0.96178 z m 35.30207,21.75954 c -4.75701,-1.59788 -9.88387,-7.79704 -11.74608,-14.2028 -2.55525,-8.78977 -0.2997,-16.81894 6.43367,-22.90213 4.75889,-4.29938 7.48457,-5.19867 15.68765,-5.17584 5.01568,0.014 6.96589,0.54961 10.92236,3 6.6399,4.11233 9.47174,9.63834 9.47174,18.48301 0,8.33418 -2.82801,14.21421 -8.88979,18.48375 -3.63766,2.56214 -5.25179,3.01402 -11.42323,3.19796 -3.95284,0.11782 -8.65818,-0.27996 -10.45632,-0.88395 z m 17.40098,-6.29206 c 9.18815,-6.0203 7.53563,-25.78165 -2.47991,-29.6556 -4.5865,-1.77403 -11.87367,-0.49068 -15.17537,2.67255 -6.36599,6.099 -6.52279,17.65299 -0.33256,24.50484 1.9127,2.11713 4.46281,4.06228 5.66692,4.32256 3.70818,0.80156 9.63732,-0.086 12.32092,-1.84435 z m 32.61836,6.68094 -3.25,-0.31336 v -21.04456 -21.04457 l 11.25,0.38346 c 15.1323,0.51579 18.75,3.03067 18.75,13.03428 0,3.47267 -0.60184,4.6803 -3.89257,7.81069 l -3.89257,3.70292 5.39257,8.64256 c 2.96591,4.75341 5.39257,8.75817 5.39257,8.89946 0,0.14129 -1.96321,0.10075 -4.36269,-0.0901 -4.28425,-0.34074 -4.44728,-0.48919 -9.06803,-8.2572 -4.59215,-7.71993 -4.79899,-7.91022 -8.59838,-7.91022 h -3.89303 l -0.28894,8.25 -0.28893,8.25 z m 14.62189,-22.29182 c 3.64951,-1.27223 5.12811,-3.50868 5.12811,-7.7565 0,-4.50025 -3.93027,-7.13832 -10.63486,-7.13832 h -5.36514 v 8 8 h 3.85078 c 2.11792,0 5.27742,-0.49733 7.02111,-1.10518 z m 77.50641,21.66826 c -3.87178,-1.68509 -6.3783,-5.13762 -6.3783,-8.78559 0,-2.29599 0.43339,-2.77749 2.5,-2.77749 1.40946,0 2.5,0.57829 2.5,1.32569 0,2.38734 4.72222,5.82736 8.73896,6.36612 2.5914,0.34758 5.01575,-0.0307 7.09829,-1.10765 2.62347,-1.35665 3.16275,-2.22399 3.16275,-5.08679 0,-4.092 -1.5564,-5.29068 -11,-8.47172 -8.35137,-2.81314 -12,-6.50477 -12,-12.14143 0,-8.3998 9.26249,-13.46011 19.9463,-10.8971 5.63271,1.35126 8.05834,3.57109 8.34881,7.64045 0.27903,3.90902 -3.40852,4.6137 -5.06928,0.96873 -1.66576,-3.65594 -8.44818,-5.33756 -12.9224,-3.20395 -2.40751,1.14806 -3.30343,2.23833 -3.30343,4.02004 0,3.47862 2.05059,5.10861 9.57836,7.61369 12.06905,4.01632 16.69264,10.74866 12.77477,18.60114 -2.51371,5.03817 -7.25773,7.38296 -14.83753,7.33364 -3.30858,-0.0215 -7.42036,-0.65053 -9.1373,-1.39778 z m 67.1217,0.26994 c -4.39868,-2.43282 -6.5,-5.18307 -6.5,-8.50733 0,-2.84054 0.34889,-3.32569 2.39159,-3.32569 1.73342,0 2.56882,0.70614 3.03559,2.5659 1.09316,4.35549 9.92504,6.89699 14.88856,4.2844 2.88109,-1.51649 3.65049,-2.79093 3.66895,-6.07725 0.0184,-3.27295 -2.01356,-4.71242 -10.98469,-7.78182 -9.04339,-3.09413 -12,-6.06108 -12,-12.04196 0,-3.71366 0.54016,-5.2167 2.62344,-7.29999 4.77795,-4.77794 13.06749,-5.88045 20.12551,-2.67668 4.3763,1.98648 6.97323,5.70306 5.91389,8.46363 -0.87736,2.28638 -4.41273,1.92717 -5.19181,-0.52752 -1.35699,-4.27549 -11.15423,-6.07637 -15.12572,-2.78033 -1.7288,1.43478 -1.74005,6.29913 -0.0179,7.72841 0.73009,0.60593 4.33771,2.03146 8.01692,3.16785 3.77498,1.16598 8.20698,3.39857 10.17255,5.12436 3.13867,2.75579 3.48088,3.56706 3.46084,8.20459 -0.0251,5.80225 -1.67086,8.52264 -6.6781,11.03845 -3.70136,1.85969 -14.74009,2.13317 -17.79966,0.44098 z m 89.95863,-0.71268 c -7.62175,-3.46209 -11.4646,-10.39413 -11.43109,-20.62034 0.047,-14.35563 12.77746,-23.87601 27.51598,-20.57767 7.65542,1.7132 12.66859,6.55805 14.9667,14.46417 3.20761,11.03502 -0.96245,21.47532 -10.53008,26.3635 -5.58088,2.85132 -14.69745,3.01584 -20.52151,0.37034 z m 18.12721,-5.58463 c 9.16571,-6.0056 8.5092,-23.93837 -1.06514,-29.0945 -2.3548,-1.26814 -4.6231,-1.58974 -8.55083,-1.21234 -4.51373,0.43372 -5.84953,1.06331 -8.58195,4.0449 -7.27978,7.94362 -4.50459,23.04546 5.02727,27.35706 3.69513,1.67144 9.71188,1.17115 13.17065,-1.09512 z m 30.1136,6.8304 c -0.38469,-0.3847 -0.69944,-10.07444 -0.69944,-21.53278 V 577.6934 h 9.9349 c 13.84586,0 19.32955,2.56227 20.65985,9.65336 0.91794,4.89304 -0.29164,8.32462 -4.2503,12.05812 l -3.51888,3.31872 3.75311,5.7349 c 2.06421,3.1542 4.6091,6.9724 5.65531,8.4849 l 1.9022,2.75 h -4.44411 -4.44412 l -4.87173,-8 c -4.68182,-7.68815 -5.01642,-8 -8.58354,-8 H 647.053 l -0.29044,8.18701 -0.29044,8.187 -3.05056,0.34577 c -1.67781,0.19017 -3.36531,0.031 -3.75,-0.35367 z m 20.97,-24.7682 c 3.00314,-3.49136 2.95952,-7.05985 -0.12399,-10.14336 -2.01589,-2.0159 -3.44556,-2.45455 -8,-2.45455 h -5.54545 v 8.12383 8.12383 l 5.66944,-0.47015 c 4.59718,-0.38124 6.11021,-0.98259 8,-3.1796 z m -264.66944,6.40209 v -18 h -6.5 -6.5 v -3 -3 h 17.06642 17.06642 l -0.31642,2.75 c -0.3064,2.66288 -0.53026,2.75937 -7.06642,3.04569 l -6.75,0.29569 v 17.95431 17.95431 h -3.5 -3.5 z m 154.11842,17.25 c 0.0651,-0.4125 0.0651,-8.5125 0,-18 l -0.11842,-17.25 h -6.5 -6.5 v -3 -3 h 17 17 v 3 3 h -6.5 -6.5 v 18 18 h -4 c -2.2,0 -3.94671,-0.3375 -3.88158,-0.75 z m 135.88158,-20.25 v -21 h 13.5 13.5 v 2.5 2.5 h -10 -10 v 6.5 6.5 h 8.5 c 8.36273,0 8.5,0.0397 8.5,2.45956 0,2.39052 -0.23157,2.46771 -8.25,2.75 l -8.25,0.29044 -0.29569,6.75 -0.29569,6.75 h 10.04569 10.04569 v 2.5 2.5 h -13.5 -13.5 z M 337.51104,530.58105 c -12.44215,-1.81268 -24.77168,-6.73588 -32.80679,-13.09981 -5.23098,-4.14301 -11.18598,-13.41382 -13.94885,-21.71571 -2.09206,-6.28624 -2.21104,-8.66016 -2.73524,-54.57213 -0.49059,-42.96803 -0.7294,-48.33145 -2.27806,-51.1617 -2.01377,-3.68028 -6.09961,-7.13194 -9.43246,-7.96844 -1.41943,-0.35625 -2.33752,-1.32962 -2.33752,-2.47827 0,-1.81121 1.21112,-1.89159 28.5,-1.89159 27.28888,0 28.5,0.0804 28.5,1.89159 0,1.17998 -0.93359,2.12591 -2.48166,2.51445 -3.92356,0.98475 -9.36983,6.39869 -10.48847,10.42623 -0.62106,2.23602 -1.02089,21.05403 -1.02429,48.20763 -0.005,36.80311 0.26069,45.5622 1.52733,50.42514 3.22012,12.36289 10.49226,21.35474 21.29194,26.32706 4.44143,2.04489 7.67232,2.70291 14.86219,3.02693 20.19312,0.91002 33.92597,-7.85308 42.02872,-26.81903 l 2.77697,-6.5 0.32143,-43 c 0.17679,-23.65 0.0312,-44.96023 -0.32354,-47.35607 -0.80021,-5.40451 -6.94945,-12.4984 -12.32092,-14.21368 -4.46803,-1.42679 -5.29789,-2.10667 -4.37806,-3.58683 0.48217,-0.77588 7.49388,-1.25574 21.95836,-1.50277 21.14801,-0.36118 21.25,-0.35267 21.25,1.77322 0,1.55031 -0.78444,2.29302 -2.86038,2.70821 -3.84712,0.76942 -8.49035,4.82897 -10.77016,9.4163 -1.72328,3.46749 -1.90909,7.47577 -2.37629,51.26162 l -0.50682,47.5 -3.11171,7.68693 c -3.56953,8.81788 -8.79084,16.39062 -14.3212,20.77074 -12.80988,10.14562 -34.37266,14.86443 -54.51452,11.92998 z m -191.53892,-4.17219 c 0,-1.87653 0.81711,-2.51919 4.43239,-3.48613 3.15936,-0.845 5.24163,-2.24627 7.25,-4.87889 l 2.81761,-3.69341 0.2937,-58.57852 c 0.16154,-32.21818 0.0268,-60.05063 -0.29932,-61.84989 -0.81968,-4.5217 -5.88759,-9.96654 -10.58712,-11.37455 -2.7049,-0.81041 -3.90726,-1.73738 -3.90726,-3.01236 0,-1.74733 1.5118,-1.84171 29.5,-1.84171 27.45092,0 29.49593,0.12156 29.44135,1.75 -0.0363,1.08384 -2.00491,2.70314 -5.17142,4.25387 -3.89051,1.90529 -5.67124,3.55996 -7.44891,6.92159 l -2.33615,4.41771 0.25757,61.57842 0.25756,61.57841 h 20.52511 20.52511 l 6.64659,-3.27411 c 8.00477,-3.94316 15.03954,-11.23776 19.89757,-20.6325 2.84891,-5.50939 3.82412,-6.5866 5.96574,-6.58969 l 2.56012,-0.004 -1.76187,15.66013 c -0.96903,8.61307 -1.89608,17.72557 -2.06012,20.25 l -0.29825,4.59017 -58.25,0.25806 -58.25,0.25806 z m 289,-0.11763 c 0,-1.79721 0.79607,-2.67969 3.16098,-3.5041 5.11183,-1.782 9.94105,-6.07016 11.94958,-10.61077 1.40592,-3.17831 2.25417,-9.43862 3.4021,-25.10846 0.84107,-11.48098 2.41979,-32.65751 3.50828,-47.05897 2.55404,-33.79187 2.55728,-44.445 0.0152,-50.04487 -1.92933,-4.25013 -6.91831,-8.25973 -10.28618,-8.26692 -1.20477,-0.003 -1.75,-0.79237 -1.75,-2.53497 v -2.53124 l 20.60024,0.10429 20.60025,0.10429 7.99903,16.67694 c 8.36626,17.44256 26.3775,55.55523 37.80477,79.99678 3.68226,7.8759 7.10018,14.33008 7.59537,14.34261 0.49518,0.0125 2.75259,-4.18138 5.01645,-9.31982 2.26386,-5.13844 11.66445,-26.21762 20.89021,-46.84262 9.22576,-20.625 18.42309,-41.325 20.43852,-46 l 3.6644,-8.5 h 20.94538 c 20.01818,0 20.94538,0.0854 20.94538,1.92805 0,1.22881 -0.93801,2.17892 -2.58643,2.61977 -4.53597,1.21311 -7.75425,3.99161 -10.00233,8.63554 -2.10765,4.35382 -2.1608,5.2304 -1.46518,24.16716 0.39699,10.80722 1.73906,36.97448 2.98239,58.14948 2.46347,41.95538 2.5952,42.66236 8.8205,47.3388 1.78808,1.3432 4.71355,2.75222 6.50105,3.13115 2.29936,0.48744 3.25,1.25073 3.25,2.60951 0,1.85065 -1.07348,1.92054 -29.5,1.92054 -28.60538,0 -29.5,-0.0593 -29.5,-1.95469 0,-1.43888 0.91544,-2.12642 3.46914,-2.6055 1.90802,-0.35795 4.60848,-1.79016 6.00102,-3.18269 4.78485,-4.78486 5.00399,-7.59657 3.11834,-40.01103 -3.43144,-58.98678 -4.41243,-74.40335 -4.75629,-74.74721 -0.19233,-0.19233 -3.6931,7.15424 -7.77949,16.32572 -51.1042,114.69801 -47.31354,106.63626 -50.30593,106.98759 -3.11887,0.36618 -3.02893,0.52797 -21.07312,-37.90662 -11.69296,-24.9063 -16.52153,-35.15614 -30.9771,-65.7566 l -8.19653,-17.35102 -0.63106,4.35102 c -0.34708,2.39307 -1.37641,15.37603 -2.2874,28.85103 -0.91098,13.475 -2.08951,30.60045 -2.61894,38.05656 -2.29863,32.37219 -0.10516,40.42359 12.00083,44.05063 3.51767,1.05392 5.74879,3.84726 4.26114,5.33491 -0.30685,0.30684 -10.6079,0.5579 -22.89124,0.5579 h -22.33333 z m 221,-0.43954 c 0,-1.27016 1.19426,-2.19952 3.84822,-2.99467 5.22427,-1.56523 8.79258,-5.11593 10.12899,-10.079 0.77484,-2.87753 1.02414,-21.5671 0.8185,-61.36123 -0.2769,-53.58348 -0.41487,-57.46318 -2.169,-60.99308 -2.05373,-4.13282 -5.76989,-7.22617 -9.9377,-8.27223 -1.73312,-0.43498 -2.68901,-1.34732 -2.68901,-2.56649 0,-1.81121 1.21112,-1.89159 28.5,-1.89159 27.2,0 28.5,0.0855 28.5,1.875 0,1.2498 -0.92581,2.06016 -2.77654,2.43031 -3.89361,0.77872 -8.2184,4.43833 -9.84464,8.33047 -1.11847,2.67688 -1.37777,14.30487 -1.37324,61.5821 0.003,36.05317 0.38978,59.6653 1.01292,61.90868 1.31166,4.72215 5.1686,8.49836 9.51236,9.31325 2.5537,0.47908 3.46914,1.16662 3.46914,2.6055 0,1.89386 -0.88689,1.95469 -28.5,1.95469 -27.01685,0 -28.5,-0.0958 -28.5,-1.84171 z m -242,-188.87793 c -19.74748,-2.25444 -40.96732,-14.15147 -52.426,-29.39296 -10.93668,-14.54716 -16.51959,-30.52721 -17.3417,-49.6374 -0.26618,-6.1875 -0.1476,-11.25 0.26353,-11.25 4.57567,0 23.27638,3.6784 28.84622,5.67401 7.53691,2.70039 17.72631,8.18763 21.24835,11.44276 l 2.0904,1.93198 1.60722,-7.31441 c 1.84165,-8.38131 5.99148,-18.14084 11.12772,-26.17008 4.25491,-6.65149 18.26932,-21.56426 20.26522,-21.56426 2.1797,0 14.51259,13.01518 19.57815,20.66126 5.34366,8.06584 9.00263,16.43556 11.34371,25.94816 0.93268,3.78982 1.83096,7.05544 1.99616,7.25692 0.16521,0.20149 2.9922,-1.43118 6.28221,-3.62817 11.0709,-7.39286 23.37188,-11.49556 41.00826,-13.67733 l 5.38945,-0.66672 -0.55249,11.80294 c -0.86483,18.47585 -5.18632,31.73179 -15.02062,46.07494 -12.10567,17.65591 -30.866,29.19663 -52.30976,32.17918 -7.18018,0.99867 -25.91418,1.18333 -33.39603,0.32918 z m 40.43567,-10.39132 c 23.46563,-6.28197 40.18024,-22.83562 48.45626,-47.98961 1.9311,-5.86938 4.47348,-21.86735 3.61203,-22.72881 -0.89802,-0.89802 -20.81667,5.43314 -26.56811,8.44469 -14.19891,7.4348 -26.11047,20.09591 -33.96796,36.10545 -4.02432,8.1995 -7.96789,21.20321 -7.96789,26.27369 v 2.67453 l 6.18567,-0.84594 c 3.40212,-0.46527 8.01462,-1.33557 10.25,-1.934 z m -32.89927,-0.13904 c -0.27593,-1.2375 -1.19289,-5.35159 -2.03769,-9.14242 -1.73274,-7.77529 -7.65244,-21.05542 -12.60639,-28.28088 -7.27873,-10.61625 -17.88709,-19.82101 -29.65263,-25.72928 -5.33612,-2.67963 -22.98366,-7.87369 -24.19929,-7.12239 -1.30403,0.80593 1.12905,17.16115 3.64845,24.52497 6.40286,18.71463 18.5373,32.6054 35.81115,40.99445 8.02292,3.89633 18.72391,6.77164 25.76905,6.92402 3.40698,0.0737 3.72086,-0.13461 3.26735,-2.16847 z m 15.89885,-27.38736 c 4.1309,-8.77706 9.31458,-16.97309 14.04968,-22.21428 l 3.58265,-3.96557 -1.05114,-6.57991 c -2.21872,-13.88858 -9.51725,-29.04933 -19.09978,-39.67469 l -4.89544,-5.42819 -5.46373,5.74626 c -9.79892,10.30563 -16.38318,23.58809 -18.9628,38.25374 l -1.23126,7 4.93136,6.27773 c 2.71225,3.45276 6.91644,9.75276 9.34264,14 4.28935,7.50885 10.30842,23.96927 10.4158,28.48423 0.0293,1.23092 1.17138,-1.58696 2.53803,-6.26196 1.36664,-4.675 3.99644,-11.71181 5.84399,-15.63736 z"
       id="path1" />
  </g>
</svg>
